<svg xmlns="http://www.w3.org/2000/svg" width="235" height="24" viewBox="0 0 235 24" fill="none">
  <path
    d="M52.4123 6.69573L61.1833 6.77304L61.8494 2.28345L48.2438 2.15857L45.2646 22.1387L50.0991 22.1804L51.2111 14.6046L59.3221 14.6759L60.0178 10.1863L51.9068 10.109L52.4123 6.69573Z"
    fill="#292929" />
  <path
    d="M76.0079 2.41422L72.1011 2.37854L60.4817 22.2755L65.8335 22.323L68.0694 18.22L75.2587 18.2854L76.3231 22.4479L81.7284 22.4955L76.0614 2.63424L76.0079 2.41422ZM74.224 14.105L70.2636 14.0693L72.9931 9.05644L74.224 14.105Z"
    fill="#292929" />
  <path
    d="M100.959 15.5916L94.9713 2.58074L88.7393 2.52722L85.7602 22.5015L90.5947 22.549L92.557 9.28242L98.7354 22.6204L104.753 22.6739L107.726 2.69967L102.898 2.6521L100.959 15.5916Z"
    fill="#292929" />
  <path
    d="M128.046 2.88405L112.103 2.74133L111.467 7.06442L117.021 7.11794L114.678 22.7631L119.512 22.8107L121.855 7.15957L127.409 7.21309L128.046 2.88405Z"
    fill="#292929" />
  <path
    d="M140.277 2.97327H136.377L124.751 22.8583L130.103 22.9059L132.339 18.8028L139.528 18.8682L140.593 23.0307L145.998 23.0783L140.337 3.18734L140.277 2.97327ZM138.494 14.67L134.533 14.6343L137.257 9.62143L138.494 14.67Z"
    fill="#292929" />
  <path
    d="M156.678 8.12293C156.875 7.89571 157.116 7.70978 157.386 7.57586C157.673 7.4314 157.979 7.32735 158.295 7.26664C159.127 7.08747 159.993 7.16204 160.781 7.48071C161.253 7.64083 161.658 7.95232 161.935 8.36674L162.113 8.63433L165.954 5.06644L165.764 4.87021C165.037 4.10739 164.132 3.53727 163.13 3.21114C162.106 2.87422 161.038 2.69379 159.96 2.67596C158.978 2.66859 157.999 2.79869 157.053 3.06248C156.109 3.30938 155.213 3.71128 154.4 4.25177C153.601 4.7943 152.913 5.48458 152.373 6.28547C151.807 7.14481 151.441 8.12023 151.302 9.13978C151.116 10.0763 151.229 11.0474 151.623 11.9168C151.987 12.6064 152.519 13.1934 153.169 13.6234C153.826 14.0545 154.538 14.3946 155.286 14.6343C156.024 14.8781 156.72 15.1219 157.362 15.3657C157.901 15.5603 158.405 15.8415 158.854 16.1983C159.018 16.3341 159.14 16.5132 159.206 16.7152C159.272 16.9171 159.28 17.1337 159.229 17.34C159.185 17.6256 159.066 17.8945 158.884 18.119C158.686 18.3487 158.446 18.5384 158.176 18.6779C157.875 18.8303 157.555 18.9423 157.225 19.0109C156.892 19.088 156.55 19.1259 156.208 19.1239C155.559 19.1214 154.92 18.9601 154.347 18.6541C153.788 18.3582 153.319 17.9164 152.991 17.3757L152.819 17.0962L148.799 20.8246L148.989 21.0268C149.78 21.8862 150.756 22.5551 151.843 22.9832C152.972 23.4027 154.166 23.6162 155.37 23.6135H155.477C156.454 23.6148 157.427 23.4909 158.373 23.2448C159.318 23.003 160.215 22.6007 161.025 22.0555C161.823 21.5033 162.507 20.8028 163.041 19.9921C163.609 19.1059 163.975 18.1047 164.111 17.0605C164.253 16.3077 164.233 15.5333 164.052 14.7889C163.898 14.1949 163.604 13.6464 163.195 13.1893C162.804 12.7605 162.339 12.4059 161.822 12.1428C161.312 11.8741 160.783 11.6436 160.24 11.453C159.711 11.2627 159.175 11.0902 158.652 10.9416C158.196 10.8115 157.753 10.6424 157.326 10.4361C157.011 10.2892 156.736 10.069 156.523 9.79389C156.352 9.53269 156.29 9.21439 156.351 8.90787C156.384 8.62063 156.497 8.34853 156.678 8.12293Z"
    fill="#292929" />
  <path
    d="M182.938 3.37756L177.687 10.3468L174.755 3.3062L168.803 3.25269L174.607 14.7829L173.346 23.2983L178.18 23.3399L179.429 14.8899L188.718 3.43108L182.938 3.37756Z"
    fill="#292929" />
  <path
    d="M206.605 22.002C205.418 22.6026 204.162 23.054 202.864 23.3459C201.613 23.6237 200.334 23.7594 199.053 23.7503C197.657 23.7619 196.272 23.4972 194.979 22.9713C193.839 22.502 192.822 21.7778 192.006 20.8544C191.199 19.9193 190.624 18.8069 190.329 17.6076C189.997 16.2443 189.95 14.8271 190.192 13.445C190.403 11.9769 190.896 10.5634 191.643 9.2825C192.353 8.06387 193.275 6.98234 194.367 6.08924C195.458 5.20139 196.693 4.50565 198.018 4.03176C199.37 3.54945 200.798 3.31184 202.234 3.33008C203.462 3.32646 204.682 3.52743 205.843 3.92472C206.963 4.31327 207.952 5.00743 208.698 5.92869L206.7 7.71263C206.131 6.98439 205.389 6.40998 204.541 6.04167C203.662 5.64937 202.709 5.44676 201.746 5.44702C200.653 5.43504 199.568 5.63705 198.553 6.04167C197.539 6.43658 196.602 7.00838 195.788 7.73047C194.967 8.45081 194.277 9.30787 193.748 10.2637C193.195 11.2572 192.829 12.3435 192.666 13.4688C192.484 14.5374 192.521 15.6317 192.773 16.6859C192.999 17.631 193.432 18.5144 194.04 19.2726C194.661 20.0149 195.447 20.6014 196.335 20.9852C197.342 21.4095 198.424 21.624 199.516 21.6155C200.364 21.6155 201.209 21.5258 202.038 21.3479C202.899 21.1755 203.738 20.902 204.535 20.5332L205.409 14.5868L200.932 14.5451L201.253 12.4044L208.044 12.4698L206.605 22.002Z"
    fill="#292929" />
  <path
    d="M222.993 23.9703C221.619 23.9925 220.256 23.7271 218.991 23.1913C217.872 22.7044 216.881 21.9657 216.095 21.0327C215.315 20.0835 214.762 18.9691 214.478 17.774C214.152 16.4365 214.099 15.0471 214.323 13.6888C214.526 12.2608 214.99 10.8822 215.691 9.62142C216.364 8.40472 217.243 7.31418 218.289 6.39843C219.345 5.49341 220.553 4.78271 221.857 4.29932C223.196 3.79944 224.615 3.55146 226.044 3.56791C227.407 3.56008 228.758 3.83546 230.01 4.37663C231.121 4.86526 232.105 5.60158 232.888 6.52925C233.668 7.48163 234.222 8.59749 234.511 9.79387C234.831 11.1302 234.883 12.5165 234.666 13.8732C234.459 15.3007 234 16.68 233.31 17.9465C232.646 19.1569 231.769 20.2384 230.723 21.1398C229.668 22.0457 228.46 22.7565 227.156 23.2389C225.827 23.7445 224.414 23.9928 222.993 23.9703ZM223.314 21.8295C224.417 21.8486 225.513 21.6464 226.537 21.2349C227.531 20.8307 228.445 20.2528 229.237 19.5283C230.027 18.7939 230.685 17.9289 231.181 16.9713C231.694 15.9899 232.044 14.9314 232.216 13.8375C232.389 12.7912 232.361 11.7215 232.133 10.6858C231.925 9.7507 231.519 8.8708 230.943 8.10507C230.37 7.35828 229.628 6.75728 228.779 6.35086C227.83 5.90856 226.794 5.68309 225.746 5.6908C224.643 5.67492 223.548 5.877 222.523 6.28545C221.528 6.68727 220.613 7.26541 219.824 7.99209C219.031 8.7253 218.37 9.58796 217.867 10.5431C217.334 11.5189 216.972 12.5788 216.797 13.6769C216.618 14.7226 216.645 15.7929 216.874 16.8286C217.08 17.7644 217.486 18.6446 218.063 19.4093C218.645 20.1538 219.392 20.7524 220.246 21.1576C221.196 21.6112 222.237 21.8411 223.29 21.8295H223.314Z"
    fill="#292929" />
  <path
    d="M0.856293 24C0.628645 23.9985 0.410856 23.9069 0.250438 23.7454C0.0900207 23.5839 -5.4137e-06 23.3654 2.44171e-10 23.1378L2.44171e-10 3.00895H10.5372C10.656 2.99906 10.7756 3.01393 10.8884 3.05262C11.0012 3.09131 11.1048 3.15298 11.1926 3.23374C11.2803 3.31449 11.3504 3.41257 11.3983 3.52179C11.4462 3.631 11.4709 3.74896 11.4709 3.86822C11.4709 3.98748 11.4462 4.10545 11.3983 4.21466C11.3504 4.32387 11.2803 4.42195 11.1926 4.50271C11.1048 4.58346 11.0012 4.64514 10.8884 4.68383C10.7756 4.72252 10.656 4.73738 10.5372 4.72749H1.71853V23.1616C1.71234 23.3861 1.61877 23.5994 1.45773 23.756C1.2967 23.9125 1.08091 24.0001 0.856293 24Z"
    fill="#F32773" />
  <path
    d="M13.3915 1.71853H3.47275C3.2572 1.70059 3.05627 1.60228 2.90981 1.44312C2.76335 1.28396 2.68205 1.07556 2.68205 0.859267C2.68205 0.642971 2.76335 0.434576 2.90981 0.275413C3.05627 0.11625 3.2572 0.0179469 3.47275 0L13.3915 0C13.607 0.0179469 13.808 0.11625 13.9544 0.275413C14.1009 0.434576 14.1822 0.642971 14.1822 0.859267C14.1822 1.07556 14.1009 1.28396 13.9544 1.44312C13.808 1.60228 13.607 1.70059 13.3915 1.71853Z"
    fill="#F32773" />
  <path
    d="M13.0406 11.1853H3.40734V6.75519C3.39744 6.63634 3.41231 6.51673 3.451 6.40392C3.48969 6.29111 3.55136 6.18756 3.63212 6.0998C3.71288 6.01204 3.81096 5.94199 3.92017 5.89407C4.02938 5.84615 4.14734 5.82141 4.26661 5.82141C4.38587 5.82141 4.50383 5.84615 4.61304 5.89407C4.72225 5.94199 4.82034 6.01204 4.90109 6.0998C4.98185 6.18756 5.04352 6.29111 5.08221 6.40392C5.1209 6.51673 5.13577 6.63634 5.12587 6.75519V9.46679H13.0406C13.2562 9.48474 13.4571 9.58304 13.6036 9.7422C13.75 9.90136 13.8313 10.1098 13.8313 10.3261C13.8313 10.5424 13.75 10.7507 13.6036 10.9099C13.4571 11.0691 13.2562 11.1674 13.0406 11.1853Z"
    fill="#F32773" />
  <path
    d="M4.26362 24C4.15067 24 4.03884 23.9776 3.93456 23.9342C3.83028 23.8908 3.73561 23.8272 3.65602 23.7471C3.57643 23.6669 3.51348 23.5718 3.4708 23.4672C3.42812 23.3627 3.40655 23.2507 3.40733 23.1377V12.9217H11.8394C11.9583 12.9118 12.0779 12.9266 12.1907 12.9653C12.3035 13.004 12.4071 13.0657 12.4948 13.1465C12.5826 13.2272 12.6526 13.3253 12.7006 13.4345C12.7485 13.5437 12.7732 13.6617 12.7732 13.7809C12.7732 13.9002 12.7485 14.0182 12.7006 14.1274C12.6526 14.2366 12.5826 14.3347 12.4948 14.4154C12.4071 14.4962 12.3035 14.5579 12.1907 14.5965C12.0779 14.6352 11.9583 14.6501 11.8394 14.6402H5.12586V23.1377C5.12586 23.3664 5.03502 23.5857 4.87332 23.7474C4.71162 23.9091 4.4923 24 4.26362 24Z"
    fill="#F32773" />
  <path
    d="M13.225 4.75721C13.7176 4.75721 14.117 4.35786 14.117 3.86524C14.117 3.37262 13.7176 2.97327 13.225 2.97327C12.7324 2.97327 12.333 3.37262 12.333 3.86524C12.333 4.35786 12.7324 4.75721 13.225 4.75721Z"
    fill="#F32773" />
  <path
    d="M33.663 7.63531C34.1819 7.63531 34.6026 7.21467 34.6026 6.69577C34.6026 6.17687 34.1819 5.75623 33.663 5.75623C33.1441 5.75623 32.7235 6.17687 32.7235 6.69577C32.7235 7.21467 33.1441 7.63531 33.663 7.63531Z"
    fill="#F32773" />
  <path
    d="M27.8652 24C25.8053 23.9995 23.7802 23.4686 21.9849 22.4587C20.1895 21.4487 18.6844 19.9936 17.6144 18.2334C16.5444 16.4732 15.9455 14.4671 15.8754 12.4084C15.8053 10.3497 16.2663 8.30756 17.2141 6.47864C18.1619 4.64972 19.5645 3.09557 21.287 1.96581C23.0095 0.836041 24.9938 0.168699 27.0489 0.0280198C29.104 -0.11266 31.1607 0.27806 33.0211 1.16257C34.8814 2.04708 36.4828 3.39559 37.671 5.0783C37.7746 5.26384 37.806 5.48111 37.7593 5.68842C37.7125 5.89573 37.5909 6.07847 37.4176 6.20157C37.2444 6.32467 37.0318 6.37947 36.8207 6.35544C36.6095 6.3314 36.4147 6.23024 36.2735 6.07136C34.8596 4.06638 32.7754 2.63307 30.3972 2.03031C28.019 1.42755 25.5037 1.69506 23.3055 2.78453C21.1073 3.874 19.3711 5.71362 18.4105 7.97113C17.45 10.2286 17.3283 12.7552 18.0675 15.0946C18.8068 17.4339 20.3582 19.4319 22.4415 20.7275C24.5249 22.0231 27.0029 22.531 29.428 22.1596C31.8531 21.7881 34.0654 20.5616 35.6654 18.7018C37.2654 16.8419 38.1476 14.4712 38.1526 12.0178C38.1706 11.8023 38.2689 11.6014 38.428 11.4549C38.5872 11.3084 38.7956 11.2271 39.0119 11.2271C39.2282 11.2271 39.4366 11.3084 39.5957 11.4549C39.7549 11.6014 39.8532 11.8023 39.8712 12.0178C39.8633 15.1974 38.5951 18.2441 36.3446 20.4902C34.094 22.7363 31.0448 23.9984 27.8652 24Z"
    fill="#F32773" />
  <path
    d="M27.8652 20.4618C26.5805 20.4619 25.3127 20.1695 24.1579 19.6067C23.003 19.044 21.9915 18.2257 21.1999 17.2138C20.4083 16.202 19.8575 15.0233 19.5893 13.7669C19.321 12.5106 19.3423 11.2096 19.6516 9.96277C19.9609 8.71589 20.55 7.5558 21.3743 6.57046C22.1986 5.58512 23.2364 4.8004 24.4091 4.27579C25.5818 3.75118 26.8585 3.50047 28.1424 3.54265C29.4264 3.58483 30.6839 3.91881 31.8196 4.51926C31.9192 4.57197 32.0074 4.64377 32.0792 4.73057C32.151 4.81737 32.205 4.91747 32.2382 5.02514C32.2713 5.13282 32.2829 5.24597 32.2723 5.35812C32.2617 5.47028 32.2291 5.57925 32.1764 5.67882C32.1237 5.77838 32.0519 5.86659 31.9651 5.93841C31.8783 6.01022 31.7782 6.06424 31.6705 6.09737C31.5628 6.1305 31.4497 6.1421 31.3375 6.1315C31.2254 6.1209 31.1164 6.08832 31.0168 6.03561C29.744 5.37064 28.2921 5.1294 26.8726 5.34702C25.4531 5.56464 24.1401 6.22975 23.1249 7.24549C22.1097 8.26124 21.4453 9.57456 21.2284 10.9942C21.0116 12.4138 21.2536 13.8656 21.9193 15.1381C22.5849 16.4106 23.6394 17.4374 24.9292 18.0688C26.219 18.7003 27.6767 18.9035 29.0901 18.6489C30.5034 18.3943 31.7985 17.6951 32.7869 16.6532C33.7752 15.6113 34.405 14.281 34.5847 12.8562H26.9316C26.8192 12.8562 26.7078 12.8341 26.6039 12.791C26.5 12.748 26.4056 12.6849 26.3261 12.6054C26.2466 12.5259 26.1835 12.4315 26.1405 12.3276C26.0975 12.2237 26.0753 12.1124 26.0753 11.9999C26.0753 11.8875 26.0975 11.7761 26.1405 11.6722C26.1835 11.5683 26.2466 11.474 26.3261 11.3944C26.4056 11.3149 26.5 11.2518 26.6039 11.2088C26.7078 11.1658 26.8192 11.1436 26.9316 11.1436H36.3271V11.9999C36.3239 14.2432 35.4314 16.3937 33.8452 17.9799C32.2589 19.5661 30.1085 20.4586 27.8652 20.4618Z"
    fill="#F32773" />
  <path
    d="M30.9574 15.9187H26.7592C26.6403 15.9286 26.5207 15.9137 26.4079 15.875C26.2951 15.8364 26.1915 15.7747 26.1038 15.6939C26.016 15.6132 25.946 15.5151 25.898 15.4059C25.8501 15.2967 25.8254 15.1787 25.8254 15.0594C25.8254 14.9402 25.8501 14.8222 25.898 14.713C25.946 14.6038 26.016 14.5057 26.1038 14.425C26.1915 14.3442 26.2951 14.2825 26.4079 14.2438C26.5207 14.2051 26.6403 14.1903 26.7592 14.2002H30.9217C31.1372 14.2181 31.3382 14.3164 31.4846 14.4756C31.6311 14.6348 31.7124 14.8432 31.7124 15.0594C31.7124 15.2757 31.6311 15.4841 31.4846 15.6433C31.3382 15.8025 31.1372 15.9008 30.9217 15.9187H30.9574Z"
    fill="#F32773" />
</svg>